<svg xmlns="http://www.w3.org/2000/svg" xmlns:xlink="http://www.w3.org/1999/xlink" width="500" zoomAndPan="magnify" viewBox="0 0 375 74.999997" height="100" preserveAspectRatio="xMidYMid meet" version="1.0"><defs><g/></defs><g fill="#000000" fill-opacity="1"><g transform="translate(3.750007, 59.149993)"><g><path d="M 28.65625 -42.046875 C 36.34375 -42.046875 41.691406 -40.679688 44.703125 -37.953125 C 47.722656 -35.234375 49.234375 -31.398438 49.234375 -26.453125 C 49.234375 -23.046875 48.632812 -20.148438 47.4375 -17.765625 C 46.238281 -15.390625 44.128906 -13.535156 41.109375 -12.203125 C 38.097656 -10.867188 33.945312 -10.203125 28.65625 -10.203125 L 16.59375 -10.203125 L 16.59375 0 L 2.3125 0 C 2.625 -7.5 2.78125 -14.515625 2.78125 -21.046875 C 2.78125 -27.585938 2.625 -34.609375 2.3125 -42.109375 L 16.59375 -42.109375 L 16.59375 -42.046875 Z M 24.59375 -21.40625 C 27.800781 -21.40625 30.207031 -21.53125 31.8125 -21.78125 C 33.414062 -22.03125 34.535156 -22.484375 35.171875 -23.140625 C 35.816406 -23.796875 36.140625 -24.765625 36.140625 -26.046875 C 36.140625 -27.316406 35.835938 -28.269531 35.234375 -28.90625 C 34.640625 -29.550781 33.535156 -29.988281 31.921875 -30.21875 C 30.316406 -30.445312 27.875 -30.5625 24.59375 -30.5625 L 16.59375 -30.5625 L 16.59375 -21.40625 Z M 24.59375 -21.40625 "/></g></g></g><g fill="#000000" fill-opacity="1"><g transform="translate(52.988591, 59.149993)"><g><path d="M 10.09375 -35.09375 C 7.65625 -35.09375 5.847656 -35.691406 4.671875 -36.890625 C 3.492188 -38.085938 2.90625 -39.65625 2.90625 -41.59375 C 2.90625 -43.476562 3.492188 -45.039062 4.671875 -46.28125 C 5.847656 -47.519531 7.65625 -48.140625 10.09375 -48.140625 C 12.414062 -48.140625 14.191406 -47.507812 15.421875 -46.25 C 16.660156 -45 17.28125 -43.445312 17.28125 -41.59375 C 17.28125 -39.65625 16.679688 -38.085938 15.484375 -36.890625 C 14.285156 -35.691406 12.488281 -35.09375 10.09375 -35.09375 Z M 3.359375 0 C 3.628906 -6.226562 3.765625 -11.367188 3.765625 -15.421875 C 3.765625 -20.253906 3.613281 -25.671875 3.3125 -31.671875 L 17.21875 -31.671875 C 16.914062 -25.910156 16.765625 -20.492188 16.765625 -15.421875 C 16.765625 -11.171875 16.898438 -6.03125 17.171875 0 Z M 3.359375 0 "/></g></g></g><g fill="#000000" fill-opacity="1"><g transform="translate(70.851255, 59.149993)"><g><path d="M 43.265625 -31.71875 L 28.890625 -18.625 C 33.796875 -11.65625 38.375 -5.445312 42.625 0 L 27.265625 0 L 24.296875 -4.75 C 22.367188 -7.957031 21.09375 -10.046875 20.46875 -11.015625 L 15.65625 -6.609375 L 15.65625 0 L 2.3125 0 C 2.625 -7.34375 2.78125 -14.785156 2.78125 -22.328125 C 2.78125 -29.910156 2.625 -37.507812 2.3125 -45.125 L 15.65625 -45.125 L 15.65625 -20.53125 C 19.40625 -24.363281 22.945312 -28.09375 26.28125 -31.71875 Z M 43.265625 -31.71875 "/></g></g></g><g fill="#000000" fill-opacity="1"><g transform="translate(111.796393, 59.149993)"><g><path d="M 39.5 -9.625 C 39.5 -8.3125 39.648438 -7.382812 39.953125 -6.84375 C 40.265625 -6.300781 40.882812 -5.914062 41.8125 -5.6875 L 41.59375 -0.234375 C 40.351562 -0.0351562 39.273438 0.0976562 38.359375 0.171875 C 37.453125 0.253906 36.242188 0.296875 34.734375 0.296875 C 31.410156 0.296875 29.207031 -0.445312 28.125 -1.9375 C 27.039062 -3.425781 26.5 -5.332031 26.5 -7.65625 L 26.5 -9.109375 C 25.382812 -5.929688 23.753906 -3.566406 21.609375 -2.015625 C 19.460938 -0.472656 16.722656 0.296875 13.390625 0.296875 C 9.523438 0.296875 6.613281 -0.472656 4.65625 -2.015625 C 2.707031 -3.566406 1.734375 -5.875 1.734375 -8.9375 C 1.734375 -11.445312 2.566406 -13.414062 4.234375 -14.84375 C 5.898438 -16.28125 8.472656 -17.269531 11.953125 -17.8125 C 9.015625 -19.894531 6.070312 -21.710938 3.125 -23.265625 C 5.445312 -26.203125 8.097656 -28.429688 11.078125 -29.953125 C 14.054688 -31.484375 17.671875 -32.25 21.921875 -32.25 C 27.878906 -32.25 32.296875 -30.960938 35.171875 -28.390625 C 38.054688 -25.816406 39.5 -21.863281 39.5 -16.53125 Z M 23.140625 -22.046875 C 21.171875 -22.046875 19.429688 -21.710938 17.921875 -21.046875 C 16.410156 -20.390625 15.054688 -19.40625 13.859375 -18.09375 C 16.179688 -18.363281 19.082031 -18.5 22.5625 -18.5 C 23.988281 -18.5 24.992188 -18.671875 25.578125 -19.015625 C 26.160156 -19.367188 26.453125 -19.816406 26.453125 -20.359375 C 26.453125 -20.816406 26.160156 -21.210938 25.578125 -21.546875 C 24.992188 -21.878906 24.179688 -22.046875 23.140625 -22.046875 Z M 17.046875 -9.15625 C 19.210938 -9.15625 21.164062 -9.570312 22.90625 -10.40625 C 24.644531 -11.238281 25.84375 -12.332031 26.5 -13.6875 L 26.5 -15.203125 C 25.570312 -14.734375 24.546875 -14.375 23.421875 -14.125 C 22.304688 -13.875 20.957031 -13.628906 19.375 -13.390625 L 17.28125 -13.046875 C 15.113281 -12.617188 14.03125 -11.882812 14.03125 -10.84375 C 14.03125 -9.71875 15.035156 -9.15625 17.046875 -9.15625 Z M 17.046875 -9.15625 "/></g></g></g><path stroke-linecap="butt" transform="matrix(0.75, 0, 0, 0.75, 158.077627, 2.899998)" fill="none" stroke-linejoin="miter" d="M 48.406918 47.076049 C 60.162128 47.076049 66.042337 50.815632 66.042337 58.289591 C 66.042337 61.805217 65.240253 64.784384 63.641295 67.242717 C 62.042336 69.680217 59.182961 71.591676 55.052752 72.961468 C 50.938169 74.320843 45.21421 74.997926 37.891293 74.997926 L 3.094415 74.997926 C 3.511081 64.992717 3.719415 55.63855 3.719415 46.925007 C 3.719415 38.216673 3.511081 28.857297 3.094415 18.852088 L 21.255875 18.852088 L 21.255875 18.930213 L 37.740251 18.930213 C 44.136085 18.930213 49.167335 19.456255 52.844419 20.513547 C 56.531919 21.570838 59.136086 23.107297 60.656919 25.122922 C 62.182961 27.133339 62.943378 29.690631 62.943378 32.784381 C 62.943378 35.919798 61.849628 38.711465 59.656919 41.169798 C 57.469419 43.622924 53.719419 45.591674 48.406918 47.076049 Z M 21.255875 33.013548 L 21.255875 40.206257 L 36.115251 40.206257 C 39.313168 40.206257 41.542335 39.919798 42.797543 39.357298 C 44.05796 38.78959 44.688168 37.75834 44.688168 36.25834 C 44.688168 35.076048 44.031918 34.237506 42.724626 33.747923 C 41.417335 33.258339 39.214209 33.013548 36.115251 33.013548 Z M 36.115251 60.841675 C 38.797543 60.841675 40.844418 60.727092 42.250668 60.503133 C 43.672543 60.273967 44.693377 59.862508 45.30796 59.273966 C 45.927752 58.6698 46.235043 57.852091 46.235043 56.820841 C 46.235043 55.487508 45.500668 54.523966 44.02671 53.930216 C 42.568376 53.336466 39.927751 53.044799 36.115251 53.044799 L 21.255875 53.044799 L 21.255875 60.841675 Z M 94.037131 75.773968 C 85.214213 75.773968 78.724629 73.753134 74.573587 69.711467 C 70.432962 65.659384 68.360045 60.336467 68.360045 53.742716 C 68.360045 47.300007 70.432962 42.065632 74.573587 38.055215 C 78.724629 34.023964 85.214213 32.013548 94.037131 32.013548 C 99.964214 32.013548 104.922548 32.982298 108.912132 34.919798 C 112.91734 36.846881 115.865257 39.44584 117.766299 42.716673 C 119.682966 45.987507 120.636091 49.664591 120.636091 53.742716 C 120.636091 60.38855 118.427758 65.721884 114.011091 69.753134 C 109.60484 73.768759 102.94859 75.773968 94.037131 75.773968 Z M 94.339214 62.633342 C 97.688173 62.633342 100.182964 61.836467 101.834006 60.237508 C 103.495465 58.63855 104.32359 56.497925 104.32359 53.815633 C 104.32359 51.289591 103.495465 49.211466 101.834006 47.586466 C 100.182964 45.961465 97.688173 45.154174 94.339214 45.154174 C 90.990255 45.154174 88.542338 45.951049 86.995463 47.550007 C 85.448588 49.148966 84.672546 51.237507 84.672546 53.815633 C 84.672546 56.497925 85.448588 58.63855 86.995463 60.237508 C 88.542338 61.836467 90.990255 62.633342 94.339214 62.633342 Z M 147.854843 75.773968 C 139.031926 75.773968 132.54755 73.753134 128.3913 69.711467 C 124.250675 65.659384 122.182966 60.336467 122.182966 53.742716 C 122.182966 47.300007 124.250675 42.065632 128.3913 38.055215 C 132.54755 34.023964 139.031926 32.013548 147.854843 32.013548 C 153.787135 32.013548 158.745469 32.982298 162.735053 34.919798 C 166.735053 36.846881 169.688178 39.44584 171.58922 42.716673 C 173.500679 45.987507 174.459012 49.664591 174.459012 53.742716 C 174.459012 60.38855 172.250679 65.721884 167.828803 69.753134 C 163.427761 73.768759 156.766302 75.773968 147.854843 75.773968 Z M 148.156927 62.633342 C 151.505885 62.633342 154.005885 61.836467 155.651719 60.237508 C 157.313177 58.63855 158.146511 56.497925 158.146511 53.815633 C 158.146511 51.289591 157.313177 49.211466 155.651719 47.586466 C 154.005885 45.961465 151.505885 45.154174 148.156927 45.154174 C 144.813176 45.154174 142.360051 45.951049 140.813176 47.550007 C 139.266301 49.148966 138.490259 51.237507 138.490259 53.815633 C 138.490259 56.497925 139.266301 58.63855 140.813176 60.237508 C 142.360051 61.836467 144.813176 62.633342 148.156927 62.633342 Z M 231.375683 32.690631 L 212.19339 50.175007 C 218.735057 59.45105 224.849641 67.727092 230.526725 74.997926 L 210.021515 74.997926 L 206.073598 68.654176 C 203.495473 64.378134 201.797556 61.596883 200.979848 60.310425 L 194.557972 66.185425 L 194.557972 74.997926 L 176.776721 74.997926 C 177.188179 65.206259 177.396512 55.284383 177.396512 45.22709 C 177.396512 35.122923 177.188179 24.987505 176.776721 14.831255 L 194.557972 14.831255 L 194.557972 47.622924 C 199.557973 42.529173 204.271515 37.550006 208.698598 32.690631 Z M 256.344435 75.773968 C 252.01631 75.773968 247.615268 75.169801 243.146518 73.961468 C 238.693392 72.742718 234.5111 70.898967 230.594433 68.430217 L 238.714226 57.367716 C 241.078809 59.065633 243.938184 60.393758 247.281935 61.352092 C 250.646518 62.305217 253.531935 62.784383 255.948602 62.784383 C 258.276727 62.784383 260.073602 62.466675 261.328811 61.820842 C 262.589228 61.1698 263.219436 60.331258 263.219436 59.310425 C 263.219436 58.4823 262.906936 57.831258 262.292353 57.367716 C 261.677769 56.898966 260.828811 56.6698 259.745477 56.6698 C 259.078811 56.6698 258.313186 56.695841 257.459019 56.742716 C 256.615269 56.7948 255.938185 56.852091 255.42256 56.914591 C 252.740269 57.216675 249.974643 57.367716 247.130893 57.367716 C 242.552768 57.367716 238.823601 56.503133 235.953809 54.779174 C 233.099642 53.055216 231.672558 50.232299 231.672558 46.305215 C 231.672558 41.773965 233.807975 38.25834 238.089226 35.768756 C 242.370476 33.263548 248.662143 32.013548 256.969436 32.013548 C 261.031936 32.013548 265.141311 32.591673 269.297562 33.747923 C 273.448604 34.904173 277.125687 36.643756 280.323604 38.961465 L 271.42777 47.925007 C 268.485061 46.393757 265.735061 45.305215 263.177769 44.659382 C 260.636102 44.00834 258.078811 43.680215 255.495477 43.680215 C 253.682977 43.680215 252.136102 44.044799 250.849643 44.773965 C 249.568393 45.492715 248.927768 46.315632 248.927768 47.247924 C 248.927768 47.966674 249.198602 48.529174 249.740268 48.945841 C 250.276727 49.346882 250.98506 49.550007 251.854852 49.550007 C 252.73506 49.550007 253.948602 49.477091 255.495477 49.326049 C 259.261102 49.070841 262.068394 48.945841 263.917353 48.945841 C 269.276728 48.945841 273.42777 49.846882 276.360062 51.643758 C 279.302771 53.445841 280.776729 56.20105 280.776729 59.914592 C 280.776729 65.492717 278.610062 69.529176 274.281937 72.034384 C 269.953812 74.529176 263.974644 75.773968 256.344435 75.773968 Z M 256.344435 75.773968 " stroke="#000000" stroke-width="0.966666" stroke-opacity="1" stroke-miterlimit="4"/></svg>