<svg xmlns="http://www.w3.org/2000/svg" xmlns:xlink="http://www.w3.org/1999/xlink" width="current" zoomAndPan="magnify" viewBox="0 0 375 74.999997" height="current" preserveAspectRatio="xMidYMid meet" version="1.0"><defs><g/></defs><g fill="#000000" fill-opacity="1"><g transform="translate(19.380991, 57.749994)"><g><path d="M 23.71875 -34.796875 C 30.082031 -34.796875 34.507812 -33.664062 37 -31.40625 C 39.5 -29.15625 40.75 -25.984375 40.75 -21.890625 C 40.75 -19.066406 40.253906 -16.671875 39.265625 -14.703125 C 38.273438 -12.742188 36.53125 -11.210938 34.03125 -10.109375 C 31.53125 -9.003906 28.09375 -8.453125 23.71875 -8.453125 L 13.734375 -8.453125 L 13.734375 0 L 1.921875 0 C 2.171875 -6.207031 2.296875 -12.015625 2.296875 -17.421875 C 2.296875 -22.828125 2.171875 -28.632812 1.921875 -34.84375 L 13.734375 -34.84375 L 13.734375 -34.796875 Z M 20.359375 -17.71875 C 23.015625 -17.71875 25.003906 -17.820312 26.328125 -18.03125 C 27.648438 -18.238281 28.578125 -18.613281 29.109375 -19.15625 C 29.640625 -19.695312 29.90625 -20.492188 29.90625 -21.546875 C 29.90625 -22.609375 29.65625 -23.398438 29.15625 -23.921875 C 28.664062 -24.453125 27.753906 -24.8125 26.421875 -25 C 25.097656 -25.195312 23.078125 -25.296875 20.359375 -25.296875 L 13.734375 -25.296875 L 13.734375 -17.71875 Z M 20.359375 -17.71875 "/></g></g></g><g fill="#000000" fill-opacity="1"><g transform="translate(60.132915, 57.749994)"><g><path d="M 27.3125 -12 L 11.65625 -12 C 11.914062 -10.59375 12.550781 -9.445312 13.5625 -8.5625 C 14.570312 -7.6875 16.003906 -7.25 17.859375 -7.25 C 19.203125 -7.25 20.460938 -7.507812 21.640625 -8.03125 C 22.828125 -8.5625 23.773438 -9.304688 24.484375 -10.265625 C 26.628906 -9.210938 29.476562 -8.078125 33.03125 -6.859375 C 32.03125 -4.617188 30.226562 -2.832031 27.625 -1.5 C 25.019531 -0.175781 21.617188 0.484375 17.421875 0.484375 C 11.984375 0.484375 7.957031 -0.769531 5.34375 -3.28125 C 2.738281 -5.800781 1.4375 -9.109375 1.4375 -13.203125 C 1.4375 -17.203125 2.734375 -20.445312 5.328125 -22.9375 C 7.921875 -25.4375 11.953125 -26.6875 17.421875 -26.6875 C 20.679688 -26.6875 23.507812 -26.140625 25.90625 -25.046875 C 28.3125 -23.960938 30.15625 -22.453125 31.4375 -20.515625 C 32.71875 -18.578125 33.359375 -16.363281 33.359375 -13.875 C 33.359375 -13.039062 33.328125 -12.414062 33.265625 -12 Z M 18.09375 -19.4375 C 16.5 -19.4375 15.1875 -19.128906 14.15625 -18.515625 C 13.132812 -17.910156 12.414062 -17.082031 12 -16.03125 L 23.328125 -16.03125 C 22.941406 -17.050781 22.316406 -17.875 21.453125 -18.5 C 20.585938 -19.125 19.46875 -19.4375 18.09375 -19.4375 Z M 18.09375 -19.4375 "/></g></g></g><g fill="#000000" fill-opacity="1"><g transform="translate(93.012849, 57.749994)"><g><path d="M 20.640625 0 C 20.828125 -4.707031 20.921875 -9.046875 20.921875 -13.015625 C 20.921875 -14.421875 20.578125 -15.535156 19.890625 -16.359375 C 19.203125 -17.191406 18.332031 -17.609375 17.28125 -17.609375 C 16.226562 -17.609375 15.332031 -17.132812 14.59375 -16.1875 C 13.851562 -15.25 13.421875 -13.96875 13.296875 -12.34375 C 13.234375 -9.90625 13.203125 -8.175781 13.203125 -7.15625 C 13.203125 -4.976562 13.265625 -2.59375 13.390625 0 L 1.921875 0 C 2.171875 -4.601562 2.296875 -8.957031 2.296875 -13.0625 C 2.296875 -17.15625 2.171875 -21.535156 1.921875 -26.203125 C 4.035156 -26.109375 5.648438 -26.0625 6.765625 -26.0625 C 7.953125 -26.0625 9.566406 -26.109375 11.609375 -26.203125 L 13.015625 -19.15625 C 13.742188 -21.707031 14.890625 -23.597656 16.453125 -24.828125 C 18.023438 -26.066406 19.851562 -26.6875 21.9375 -26.6875 C 23.851562 -26.6875 25.515625 -26.257812 26.921875 -25.40625 C 28.335938 -24.5625 29.40625 -23.421875 30.125 -21.984375 C 30.84375 -20.546875 31.203125 -18.929688 31.203125 -17.140625 L 31.203125 -10.21875 C 31.203125 -5.96875 31.28125 -2.5625 31.4375 0 Z M 20.640625 0 "/></g></g></g><g fill="#000000" fill-opacity="1"><g transform="translate(124.452782, 57.749994)"><g><path d="M 23.65625 -17.609375 C 20.71875 -17.804688 18.03125 -17.953125 15.59375 -18.046875 L 15.546875 -12.953125 C 15.546875 -11.234375 15.921875 -9.882812 16.671875 -8.90625 C 17.429688 -7.925781 18.769531 -7.4375 20.6875 -7.4375 C 21.425781 -7.4375 22.128906 -7.5 22.796875 -7.625 C 22.671875 -6.445312 22.609375 -5.25 22.609375 -4.03125 C 22.609375 -3.457031 22.640625 -2.144531 22.703125 -0.09375 C 21.296875 0.15625 20.113281 0.3125 19.15625 0.375 C 18.195312 0.445312 16.945312 0.484375 15.40625 0.484375 C 11.664062 0.484375 9.019531 -0.414062 7.46875 -2.21875 C 5.914062 -4.03125 5.140625 -6.554688 5.140625 -9.796875 L 5.1875 -17.90625 C 3.675781 -17.84375 2.109375 -17.742188 0.484375 -17.609375 L 0.484375 -26.109375 C 2.140625 -26.109375 3.546875 -26.632812 4.703125 -27.6875 C 5.859375 -28.75 6.546875 -30.015625 6.765625 -31.484375 L 19.828125 -31.484375 C 18.191406 -29.242188 16.382812 -27.453125 14.40625 -26.109375 L 23.65625 -26.109375 Z M 23.65625 -17.609375 "/></g></g></g><g fill="#000000" fill-opacity="1"><g transform="translate(147.156737, 57.749994)"><g><path d="M 32.6875 -7.96875 C 32.6875 -6.882812 32.8125 -6.113281 33.0625 -5.65625 C 33.320312 -5.207031 33.835938 -4.890625 34.609375 -4.703125 L 34.421875 -0.1875 C 33.390625 -0.03125 32.5 0.078125 31.75 0.140625 C 31 0.203125 30 0.234375 28.75 0.234375 C 26 0.234375 24.175781 -0.378906 23.28125 -1.609375 C 22.382812 -2.835938 21.9375 -4.414062 21.9375 -6.34375 L 21.9375 -7.53125 C 21.007812 -4.90625 19.65625 -2.953125 17.875 -1.671875 C 16.101562 -0.398438 13.84375 0.234375 11.09375 0.234375 C 7.882812 0.234375 5.472656 -0.398438 3.859375 -1.671875 C 2.242188 -2.953125 1.4375 -4.859375 1.4375 -7.390625 C 1.4375 -9.472656 2.125 -11.101562 3.5 -12.28125 C 4.875 -13.46875 7.003906 -14.285156 9.890625 -14.734375 C 7.453125 -16.460938 5.019531 -17.96875 2.59375 -19.25 C 4.507812 -21.675781 6.695312 -23.519531 9.15625 -24.78125 C 11.625 -26.050781 14.617188 -26.6875 18.140625 -26.6875 C 23.066406 -26.6875 26.722656 -25.617188 29.109375 -23.484375 C 31.492188 -21.359375 32.6875 -18.09375 32.6875 -13.6875 Z M 19.15625 -18.234375 C 17.519531 -18.234375 16.078125 -17.960938 14.828125 -17.421875 C 13.578125 -16.878906 12.457031 -16.0625 11.46875 -14.96875 C 13.394531 -15.195312 15.796875 -15.3125 18.671875 -15.3125 C 19.859375 -15.3125 20.691406 -15.453125 21.171875 -15.734375 C 21.648438 -16.023438 21.890625 -16.394531 21.890625 -16.84375 C 21.890625 -17.226562 21.648438 -17.554688 21.171875 -17.828125 C 20.691406 -18.097656 20.019531 -18.234375 19.15625 -18.234375 Z M 14.109375 -7.578125 C 15.898438 -7.578125 17.515625 -7.921875 18.953125 -8.609375 C 20.398438 -9.296875 21.394531 -10.203125 21.9375 -11.328125 L 21.9375 -12.578125 C 21.164062 -12.191406 20.316406 -11.894531 19.390625 -11.6875 C 18.460938 -11.476562 17.34375 -11.28125 16.03125 -11.09375 L 14.296875 -10.796875 C 12.503906 -10.441406 11.609375 -9.832031 11.609375 -8.96875 C 11.609375 -8.039062 12.441406 -7.578125 14.109375 -7.578125 Z M 14.109375 -7.578125 "/></g></g></g><path stroke-linecap="butt" transform="matrix(0.75, 0, 0, 0.75, 187.499992, 12.599999)" fill="none" stroke-linejoin="miter" d="M 40.062514 38.892713 C 49.791681 38.892713 54.656265 41.986463 54.656265 48.173964 C 54.656265 51.080214 53.994806 53.548964 52.67189 55.580214 C 51.348973 57.601048 48.979181 59.179173 45.562514 60.31459 C 42.156264 61.43959 37.421888 62.00209 31.359388 62.00209 L 2.562511 62.00209 C 2.906261 53.720839 3.078136 45.976047 3.078136 38.767713 C 3.078136 31.559379 2.906261 23.814587 2.562511 15.533336 L 17.593762 15.533336 L 17.593762 15.595836 L 31.234388 15.595836 C 36.526055 15.595836 40.692722 16.033336 43.734389 16.908336 C 46.786473 17.783336 48.942723 19.05417 50.20314 20.720836 C 51.463556 22.387503 52.093765 24.502087 52.093765 27.064587 C 52.093765 29.658337 51.187515 31.970837 49.375014 34.002088 C 47.562514 36.033338 44.458347 37.663546 40.062514 38.892713 Z M 17.593762 27.252087 L 17.593762 33.205212 L 29.890638 33.205212 C 32.536471 33.205212 34.380222 32.970837 35.421888 32.502087 C 36.463555 32.033337 36.984388 31.179171 36.984388 29.939587 C 36.984388 28.96042 36.442722 28.267712 35.359388 27.861462 C 34.276055 27.455212 32.453138 27.252087 29.890638 27.252087 Z M 29.890638 50.283339 C 32.109388 50.283339 33.802097 50.189589 34.968763 50.002089 C 36.145847 49.814589 36.989597 49.476047 37.500013 48.986464 C 38.01043 48.486464 38.265639 47.80938 38.265639 46.955214 C 38.265639 45.851047 37.656263 45.054172 36.437513 44.564588 C 35.22918 44.075005 33.046888 43.830213 29.890638 43.830213 L 17.593762 43.830213 L 17.593762 50.283339 Z M 77.828142 62.642715 C 70.526058 62.642715 65.156266 60.97084 61.718765 57.627089 C 58.291682 54.272923 56.57814 49.866672 56.57814 44.408338 C 56.57814 39.075005 58.291682 34.746879 61.718765 31.423962 C 65.156266 28.090629 70.526058 26.423962 77.828142 26.423962 C 82.734392 26.423962 86.838559 27.226045 90.140643 28.830212 C 93.453143 30.423962 95.895852 32.575004 97.468768 35.283338 C 99.052102 37.991671 99.843769 41.033338 99.843769 44.408338 C 99.843769 49.908339 98.015643 54.325006 94.359393 57.658339 C 90.713559 60.981256 85.203142 62.642715 77.828142 62.642715 Z M 78.078142 51.767714 C 80.848975 51.767714 82.916684 51.106256 84.281267 49.783339 C 85.656267 48.460422 86.343767 46.689589 86.343767 44.470838 C 86.343767 42.377088 85.656267 40.658338 84.281267 39.314588 C 82.916684 37.970838 80.848975 37.298963 78.078142 37.298963 C 75.307308 37.298963 73.281266 37.960421 72.000016 39.283338 C 70.718766 40.606255 70.078141 42.335422 70.078141 44.470838 C 70.078141 46.689589 70.718766 48.460422 72.000016 49.783339 C 73.281266 51.106256 75.307308 51.767714 78.078142 51.767714 Z M 122.369812 62.642715 C 115.067728 62.642715 109.697936 60.97084 106.260436 57.627089 C 102.833352 54.272923 101.11981 49.866672 101.11981 44.408338 C 101.11981 39.075005 102.833352 34.746879 106.260436 31.423962 C 109.697936 28.090629 115.067728 26.423962 122.369812 26.423962 C 127.276062 26.423962 131.380229 27.226045 134.682313 28.830212 C 137.994813 30.423962 140.437522 32.575004 142.010439 35.283338 C 143.593772 37.991671 144.385439 41.033338 144.385439 44.408338 C 144.385439 49.908339 142.557314 54.325006 138.901063 57.658339 C 135.25523 60.981256 129.744813 62.642715 122.369812 62.642715 Z M 122.619812 51.767714 C 125.390646 51.767714 127.458354 51.106256 128.822938 49.783339 C 130.197938 48.460422 130.885438 46.689589 130.885438 44.470838 C 130.885438 42.377088 130.197938 40.658338 128.822938 39.314588 C 127.458354 37.970838 125.390646 37.298963 122.619812 37.298963 C 119.848979 37.298963 117.822937 37.960421 116.541687 39.283338 C 115.260436 40.606255 114.619811 42.335422 114.619811 44.470838 C 114.619811 46.689589 115.260436 48.460422 116.541687 49.783339 C 117.822937 51.106256 119.848979 51.767714 122.619812 51.767714 Z M 191.494818 26.986462 L 175.619816 41.455213 C 181.036484 49.132297 186.093776 55.981256 190.791693 62.00209 L 173.822941 62.00209 L 170.557316 56.752089 C 168.421899 53.210422 167.015649 50.908339 166.338566 49.845839 L 161.026065 54.705214 L 161.026065 62.00209 L 146.307314 62.00209 C 146.651064 53.897922 146.822939 45.68438 146.822939 37.361463 C 146.822939 28.996879 146.651064 20.611461 146.307314 12.205211 L 161.026065 12.205211 L 161.026065 39.345838 C 165.161482 35.127088 169.062524 31.007296 172.729191 26.986462 Z M 212.161486 62.642715 C 208.578152 62.642715 204.937527 62.142715 201.23961 61.142715 C 197.55211 60.132298 194.088568 58.606256 190.848984 56.564589 L 197.567735 47.408339 C 199.526068 48.814589 201.890652 49.913547 204.661485 50.705214 C 207.442736 51.496881 209.833361 51.892714 211.833361 51.892714 C 213.760445 51.892714 215.24482 51.627089 216.286486 51.095839 C 217.328153 50.554172 217.848987 49.861464 217.848987 49.017714 C 217.848987 48.330214 217.593778 47.793755 217.083361 47.408339 C 216.572945 47.022922 215.86982 46.830214 214.973986 46.830214 C 214.421903 46.830214 213.791695 46.851047 213.083361 46.892714 C 212.385444 46.93438 211.822944 46.981255 211.395861 47.033339 C 209.177111 47.283339 206.890652 47.408339 204.536485 47.408339 C 200.744818 47.408339 197.661485 46.694797 195.286485 45.267713 C 192.921901 43.84063 191.739609 41.502088 191.739609 38.252088 C 191.739609 34.502088 193.510443 31.595837 197.05211 29.533337 C 200.593777 27.46042 205.802111 26.423962 212.677111 26.423962 C 216.041695 26.423962 219.442737 26.903129 222.880237 27.861462 C 226.317737 28.819795 229.359404 30.257296 232.005238 32.173962 L 224.645862 39.595838 C 222.208362 38.325005 219.93232 37.423963 217.817737 36.892713 C 215.71357 36.351046 213.593778 36.080213 211.458361 36.080213 C 209.958361 36.080213 208.677111 36.382296 207.614611 36.986463 C 206.552111 37.580213 206.020861 38.262505 206.020861 39.033338 C 206.020861 39.627088 206.244819 40.095838 206.692736 40.439588 C 207.140652 40.772921 207.723986 40.939588 208.442736 40.939588 C 209.171902 40.939588 210.177111 40.877088 211.458361 40.752088 C 214.572945 40.543755 216.895861 40.439588 218.427112 40.439588 C 222.864612 40.439588 226.296904 41.18438 228.723987 42.673963 C 231.161488 44.163547 232.380238 46.444797 232.380238 49.517714 C 232.380238 54.132298 230.588571 57.476048 227.005237 59.548965 C 223.421904 61.611465 218.473987 62.642715 212.161486 62.642715 Z M 212.161486 62.642715 " stroke="#000000" stroke-width="0.8" stroke-opacity="1" stroke-miterlimit="4"/></svg>